<?xml version="1.0" encoding="utf-8"?>
<!-- Generator: Adobe Illustrator 23.0.1, SVG Export Plug-In . SVG Version: 6.00 Build 0)  -->
<svg version="1.1" id="Capa_1" xmlns="http://www.w3.org/2000/svg" xmlns:xlink="http://www.w3.org/1999/xlink" x="0px" y="0px"
	 viewBox="0 0 215 30" style="enable-background:new 0 0 215 30;" xml:space="preserve">
<style type="text/css">
	.st0{fill-rule:evenodd;clip-rule:evenodd;fill:#FFFFFF;}
	.st1{filter:url(#Adobe_OpacityMaskFilter);}
	.st2{mask:url(#mask-2_1_);fill-rule:evenodd;clip-rule:evenodd;fill:#FFFFFF;}
	.st3{filter:url(#Adobe_OpacityMaskFilter_1_);}
	.st4{mask:url(#mask-4_1_);fill-rule:evenodd;clip-rule:evenodd;fill:#FFFFFF;}
</style>
<title>Group 35</title>
<desc>Created with Sketch.</desc>
<g id="Desk-Personas">
	<g id="Home-A---Desk" transform="translate(-151.000000, -61.000000)">
		<g id="Group-35" transform="translate(151.000000, 61.000000)">
			<path id="Fill-1" class="st0" d="M48.36,2.15c-7.97,6.33-15.74,12.62-19.5,22.41c-4.71-6.78-11.76-9.33-19.55-10.72
				c0.12-0.13,0.2-0.26,0.31-0.33C16.76,8.97,24.21,5.05,32.47,2.9c5.04-1.31,10.15-1.63,15.31-0.89
				C47.93,2.04,48.07,2.08,48.36,2.15"/>
			<path id="Fill-3" class="st0" d="M78.81,22.6c1.44,0.87,1.51,2.09,1.2,3.42c-0.26,1.11-0.56,2.21-0.86,3.36h-3.86
				c0.1-0.53,0.18-0.99,0.28-1.46c0.16-0.76,0.39-1.51,0.48-2.27c0.13-1.19-0.36-1.82-1.53-2.05c-0.66-0.13-1.34-0.16-2.15-0.25
				c0.35-0.87,0.65-1.71,1.03-2.51c0.08-0.18,0.43-0.31,0.67-0.32c0.74-0.04,1.49,0.01,2.23-0.03c1.55-0.08,2.55-0.9,2.95-2.38
				c0.27-1.01-0.1-1.59-1.15-1.62c-1.58-0.05-3.17-0.07-4.74-0.01c-0.3,0.01-0.74,0.41-0.86,0.72c-1.44,3.77-2.85,7.55-4.22,11.35
				c-0.24,0.66-0.53,0.96-1.25,0.9c-0.83-0.07-1.67-0.01-2.66-0.01c0.54-1.48,1.03-2.84,1.54-4.2c1.35-3.64,2.71-7.27,4.03-10.92
				c0.24-0.68,0.58-0.88,1.28-0.86c2.98,0.08,5.95,0.09,8.93,0.15c0.43,0.01,0.86,0.1,1.28,0.21c1.56,0.4,2.33,1.43,2.09,3.03
				c-0.36,2.35-1.61,4.13-3.71,5.28C79.52,22.25,79.24,22.38,78.81,22.6"/>
			<path id="Fill-5" class="st0" d="M96.22,22.67c1.26,0.77,1.41,1.92,1.12,3.19c-0.26,1.15-0.57,2.29-0.88,3.49h-3.91
				c0.18-0.78,0.35-1.52,0.52-2.26c0.08-0.36,0.17-0.73,0.23-1.09c0.24-1.51-0.27-2.23-1.78-2.48c-0.57-0.09-1.16-0.1-1.88-0.16
				c0.36-0.9,0.66-1.74,1.04-2.54c0.08-0.18,0.44-0.31,0.67-0.32c0.74-0.04,1.49,0.01,2.23-0.03c1.56-0.08,2.54-0.89,2.95-2.38
				c0.27-1-0.11-1.58-1.15-1.62c-1.58-0.05-3.17-0.01-4.75-0.05c-0.64-0.02-0.76,0.4-0.92,0.84c-1.38,3.73-2.78,7.45-4.12,11.19
				c-0.26,0.73-0.6,1.05-1.39,0.98c-0.79-0.07-1.6-0.02-2.56-0.02c0.54-1.46,1.03-2.79,1.52-4.12c1.36-3.67,2.73-7.33,4.06-11.01
				c0.22-0.61,0.5-0.87,1.19-0.86c2.98,0.08,5.95,0.09,8.93,0.15c0.46,0.01,0.93,0.1,1.37,0.21c1.56,0.4,2.35,1.53,2.06,3.13
				c-0.42,2.3-1.63,4.07-3.72,5.18c-0.25,0.13-0.49,0.25-0.74,0.39C96.31,22.51,96.3,22.55,96.22,22.67"/>
			<path id="Fill-7" class="st0" d="M150.73,13.53c-0.33,0.9-0.56,1.71-0.94,2.45c-0.13,0.25-0.63,0.43-0.97,0.44
				c-2.54,0.05-5.09,0.04-7.63,0.08c-1.41,0.02-2.22,0.57-2.61,1.68c-0.32,0.91-0.02,1.51,0.93,1.59c1.36,0.11,2.73,0.07,4.09,0.13
				c0.77,0.03,1.56,0.05,2.31,0.22c1.43,0.33,2.06,1.26,1.99,2.72c-0.15,2.97-2.82,6.6-6.64,6.58c-3.13-0.01-6.27,0.02-9.4,0.03
				c-0.18,0-0.35-0.05-0.65-0.08c0.32-0.87,0.57-1.7,0.95-2.47c0.11-0.23,0.59-0.39,0.9-0.39c2.45-0.04,4.9-0.02,7.35-0.05
				c1.13-0.01,2.16-0.28,2.83-1.31c0.77-1.19,0.31-2.19-1.1-2.26c-1.76-0.09-3.54,0.01-5.29-0.2c-2.17-0.25-3.04-1.76-2.47-3.88
				c0.8-2.95,3.1-5.07,6.16-5.24C143.88,13.4,147.23,13.53,150.73,13.53"/>
			<path id="Fill-9" class="st0" d="M122.06,26.71c1.1,0.04,2.25-0.25,3.16-1.06c2.18-1.93,3.19-4.46,3.41-7.3
				c0.08-1.11-0.57-1.77-1.67-2.02c-2.16-0.49-4.55,0.32-5.68,2.25c-0.88,1.5-1.54,3.18-2.01,4.85
				C118.65,25.64,119.62,26.71,122.06,26.71 M121.13,29.64c-0.85-0.12-1.76-0.18-2.63-0.39c-2.75-0.69-3.9-2.49-3.38-5.28
				c0.44-2.39,1.38-4.58,2.84-6.52c2.58-3.44,7.79-5.04,11.88-3.68c2.07,0.69,2.9,1.85,2.86,4.03c-0.1,5.36-3.92,10.33-8.85,11.48
				C122.98,29.47,122.07,29.52,121.13,29.64"/>
			<path id="Fill-11" class="st0" d="M55.11,26.71c1.12,0.04,2.27-0.24,3.19-1.04c2.2-1.92,3.19-4.45,3.43-7.29
				c0.1-1.16-0.57-1.81-1.74-2.05c-2.22-0.46-4.55,0.38-5.71,2.39c-0.84,1.46-1.47,3.07-1.93,4.69
				C51.73,25.58,52.72,26.7,55.11,26.71 M59.85,13.19c1.2,0.25,2.44,0.41,3.6,0.79c1.41,0.47,2.2,1.54,2.33,3.07
				c0.45,5.21-3.65,11.06-8.75,12.16c-1.63,0.35-3.41,0.34-5.06,0.11c-3.01-0.43-4.31-2.5-3.71-5.54c0.48-2.41,1.45-4.62,2.97-6.56
				C53.24,14.65,56.02,13.41,59.85,13.19"/>
			<path id="Fill-13" class="st0" d="M117.13,13.46c-0.37,0.99-0.62,1.82-1,2.59c-0.11,0.23-0.59,0.37-0.91,0.38
				c-1.77,0.06-3.54,0.02-5.3,0.12c-2.08,0.12-3.57,1.39-4.12,3.44h8.92c-0.39,1.05-0.69,1.95-1.08,2.8
				c-0.08,0.17-0.54,0.23-0.82,0.23c-2.33,0.02-4.65-0.01-6.98,0.03c-0.51,0.01-1.23-0.36-1.45,0.55c-0.29,1.19-0.01,2.13,0.89,2.48
				c0.62,0.24,1.32,0.37,1.99,0.39c1.61,0.05,3.22,0.02,5.04,0.02c-0.38,1.02-0.69,1.9-1.04,2.77c-0.05,0.12-0.3,0.21-0.46,0.21
				c-2.45-0.06-4.9,0-7.33-0.25c-2.08-0.21-3.04-1.5-3.16-3.61c-0.28-4.92,3.73-10.74,8.3-11.81c1.42-0.33,2.95-0.25,4.43-0.3
				C114.33,13.42,115.63,13.46,117.13,13.46"/>
			<g id="Group-17" transform="translate(0.517241, 0.156207)">
				<g id="Clip-16">
				</g>
				<defs>
					<filter id="Adobe_OpacityMaskFilter" filterUnits="userSpaceOnUse" x="0.03" y="0.36" width="43.84" height="12.36">
						<feColorMatrix  type="matrix" values="1 0 0 0 0  0 1 0 0 0  0 0 1 0 0  0 0 0 1 0"/>
					</filter>
				</defs>
				<mask maskUnits="userSpaceOnUse" x="0.03" y="0.36" width="43.84" height="12.36" id="mask-2_1_">
					<g class="st1">
						<polygon id="path-1_1_" class="st0" points="0.03,0.36 43.87,0.36 43.87,12.72 0.03,12.72 						"/>
					</g>
				</mask>
				<path id="Fill-15" class="st2" d="M0.03,12.13C13.4,3.5,27.68-1.52,43.87,1.02c-0.64,0-1.28,0-1.92,0c-0.68,0-1.37-0.01-2.05,0
					C33.24,1.14,26.96,2.97,21,5.77c-4.29,2.01-8.39,4.43-12.59,6.63c-0.48,0.25-1.1,0.35-1.64,0.32
					C4.52,12.56,2.28,12.33,0.03,12.13"/>
			</g>
			<path id="Fill-18" class="st0" d="M50.97,13.47c-0.35,0.95-0.59,1.76-0.95,2.5c-0.12,0.24-0.56,0.44-0.86,0.45
				c-1.61,0.06-3.23,0.02-4.84,0.07c-2.21,0.07-3.87,1.09-4.79,3.11c-0.55,1.21-1.02,2.47-1.33,3.76c-0.49,2.08,0.26,3.01,2.38,3.1
				c1.46,0.06,2.91,0.03,4.37,0.04c0.34,0,0.68,0,1.21,0c-0.37,0.98-0.66,1.85-1.03,2.68c-0.08,0.17-0.46,0.28-0.7,0.28
				c-2.26,0-4.53,0.03-6.79-0.06c-2.57-0.11-4.03-1.73-3.76-4.29c0.37-3.57,1.8-6.69,4.42-9.2c1.78-1.71,4-2.32,6.38-2.41
				C46.71,13.4,48.75,13.47,50.97,13.47"/>
			<path id="Fill-20" class="st0" d="M182.92,13.36c-0.72,1.97-1.37,3.77-2.03,5.57c-1.17,3.18-2.37,6.34-3.49,9.53
				c-0.27,0.76-0.62,1.04-1.39,0.95c-0.45-0.05-0.91-0.01-1.49-0.01c0.88-2.42,1.71-4.71,2.59-7.14c-1.87,0-3.56-0.01-5.26,0.01
				c-1.14,0.01-2.54-0.31-3.34,0.23c-0.76,0.51-0.9,1.96-1.29,3c-0.37,0.99-0.77,1.97-1.08,2.98c-0.21,0.7-0.53,1.06-1.31,0.95
				c-0.47-0.07-0.97-0.01-1.57-0.01c1-2.75,1.96-5.36,2.92-7.98c0.86-2.33,1.76-4.64,2.55-7c0.29-0.87,0.73-1.19,1.6-1.08
				c0.39,0.05,0.8,0.01,1.33,0.01c-0.85,2.34-1.66,4.56-2.54,6.97h2.16c1.92,0,3.85-0.02,5.77,0.01c0.6,0.01,0.88-0.2,1.08-0.76
				c0.59-1.7,1.29-3.37,1.83-5.08c0.28-0.9,0.7-1.3,1.64-1.15C181.96,13.41,182.34,13.36,182.92,13.36"/>
			<path id="Fill-22" class="st0" d="M214.81,13.38c-0.23,1.79-0.39,1.93-1.98,1.94c-1.46,0.01-2.92,0-4.37,0.08
				c-2.66,0.16-4.92,2.1-5.69,4.92h9.58c-0.22,0.68-0.32,1.2-0.57,1.64c-0.12,0.21-0.54,0.34-0.83,0.34c-2.73,0.03-5.46,0.04-8.19,0
				c-0.69-0.01-1.04,0.21-1.13,0.88c-0.04,0.34-0.15,0.67-0.17,1.01c-0.17,2.14,0.72,3.15,2.85,3.22c0.9,0.03,1.8,0.01,2.7,0.02
				c0.86,0,1.73,0,2.6,0c-0.09,1.71-0.36,1.99-1.95,1.97c-1.92-0.02-3.86,0.07-5.76-0.15c-2.38-0.27-3.37-1.6-3.34-4.01
				c0.06-6.16,5.14-11.53,11.24-11.85C211.46,13.31,213.13,13.38,214.81,13.38"/>
			<path id="Fill-24" class="st0" d="M161.65,27.58c-0.16,0.46-0.3,0.97-0.52,1.44c-0.08,0.17-0.36,0.37-0.54,0.37
				c-2.29-0.02-4.6,0.06-6.87-0.16c-2.66-0.26-3.9-1.92-3.6-4.55c0.42-3.68,2.09-6.72,4.82-9.19c1.78-1.62,3.97-2.08,6.29-2.11
				c1.83-0.02,3.65,0,5.48,0c-0.09,1.66-0.37,1.94-1.89,1.95c-1.61,0.01-3.22,0.06-4.84,0.07c-1.78,0.01-3.16,0.78-4.24,2.15
				c-1.5,1.92-2.56,4.04-2.82,6.49c-0.24,2.2,0.71,3.31,2.91,3.38c1.89,0.06,3.78,0.05,5.67,0.07
				C161.53,27.48,161.56,27.51,161.65,27.58"/>
			<g id="Group-28" transform="translate(0.000000, 14.638966)">
				<g id="Clip-27">
				</g>
				<defs>
					<filter id="Adobe_OpacityMaskFilter_1_" filterUnits="userSpaceOnUse" x="0" y="0.44" width="27.54" height="8.45">
						<feColorMatrix  type="matrix" values="1 0 0 0 0  0 1 0 0 0  0 0 1 0 0  0 0 0 1 0"/>
					</filter>
				</defs>
				<mask maskUnits="userSpaceOnUse" x="0" y="0.44" width="27.54" height="8.45" id="mask-4_1_">
					<g class="st3">
						<polygon id="path-3_1_" class="st0" points="0,0.44 27.54,0.44 27.54,8.89 0,8.89 						"/>
					</g>
				</mask>
				<path id="Fill-26" class="st4" d="M0,6.9c0.58-0.5,0.94-0.83,1.33-1.13c2.12-1.66,4.24-3.33,6.39-4.96
					c0.29-0.22,0.74-0.4,1.09-0.36c5.89,0.61,11.43,2.22,16.17,5.96c0.93,0.73,1.75,1.61,2.57,2.49
					c-5.08-3.88-10.93-4.45-16.97-3.84c-3.25,0.33-6.46,1.1-9.69,1.68C0.69,6.77,0.49,6.81,0,6.9"/>
			</g>
			<path id="Fill-29" class="st0" d="M195.02,13.36c-0.86,2.35-1.68,4.52-2.46,6.7c-0.57,1.6-1.16,3.21-1.59,4.85
				c-0.34,1.3,0.15,2.1,1.46,2.3c1.33,0.21,2.71,0.15,4.07,0.21c0.31,0.01,0.61,0,0.92,0c0.01,1.59-0.36,1.99-1.8,1.97
				c-1.58-0.03-3.17,0.02-4.72-0.18c-2.16-0.28-3.14-1.62-2.62-3.75c0.49-2.04,1.29-4.01,1.99-5.99c0.6-1.73,1.3-3.42,1.87-5.16
				c0.25-0.76,0.63-1.05,1.4-0.96C193.95,13.4,194.38,13.36,195.02,13.36"/>
			<path id="Fill-31" class="st0" d="M189.07,13.36c-0.35,0.96-0.65,1.8-0.95,2.63c-1.52,4.14-3.07,8.27-4.55,12.42
				c-0.27,0.77-0.62,1.13-1.45,1c-0.42-0.07-0.86-0.01-1.44-0.01c0.46-1.27,0.86-2.43,1.29-3.59c1.37-3.73,2.79-7.45,4.1-11.2
				c0.35-0.99,0.81-1.44,1.85-1.26C188.24,13.41,188.59,13.36,189.07,13.36"/>
			<path id="Fill-33" class="st0" d="M54.15,4.14c-5.42,1.12-10.28,3.33-14.81,6.39c1.25-1.04,2.47-2.11,3.76-3.1
				c1.97-1.5,3.98-2.95,6.01-4.39c0.28-0.2,0.77-0.32,1.1-0.23C51.53,3.21,52.84,3.69,54.15,4.14"/>
		</g>
	</g>
</g>
</svg>
