<?xml version="1.0" encoding="utf-8"?>
<!-- Generator: Adobe Illustrator 22.0.1, SVG Export Plug-In . SVG Version: 6.00 Build 0)  -->
<svg version="1.1" id="Layer_1" xmlns="http://www.w3.org/2000/svg" xmlns:xlink="http://www.w3.org/1999/xlink" x="0px" y="0px"
	 viewBox="0 0 512 512" style="enable-background:new 0 0 512 512;" xml:space="preserve">
<style type="text/css">
	.st0{fill:#322E2C;}
</style>
<g>
	<path class="st0" d="M470.7,258.3l-16.3-10.9L436,208.9c-0.6-1.2-10.1-20.4-34.9-22.9c-0.2,0-0.4,0-0.6,0h-46.4v-24.3
		c0-12.2-9.9-22.1-22.1-22.1h-190c-3.3,0-6,2.7-6,6c0,3.3,2.7,6,6,6h190c5.6,0,10.1,4.6,10.1,10.1v95.7l-115.5-0.1c0,0,0,0,0,0
		c-3.3,0-6,2.7-6,6c0,3.3,2.7,6,6,6l115.5,0.1V295c0,3.3,2.7,6,6,6c3.3,0,6-2.7,6-6v-97.1h46.1c7.4,0.8,13.8,3.7,19.1,8.6
		c4,3.8,5.8,7.4,5.9,7.5c0,0,0,0,0,0l19.2,40c0.5,1,1.2,1.8,2.1,2.4l17.7,11.8c0.4,0.3,6.2,4.5,8.2,13.5H464c-3.3,0-6,2.7-6,6
		c0,3.3,2.7,6,6,6h9v24.8c0,5.6-4.6,10.1-10.1,10.1c0,0,0,0,0,0h-24.2c-2.9-18-18.5-31.8-37.3-31.8c-18.8,0-34.5,13.8-37.3,31.8
		h-15.8H242.4c-2.9-18-18.5-31.8-37.3-31.8c-18.8,0-34.5,13.8-37.3,31.8h-25.8c0,0,0,0,0,0c-5.6,0-10.1-4.6-10.1-10.1v-30.8
		c0-3.3-2.7-6-6-6s-6,2.7-6,6v30.8c0,12.2,9.9,22.1,22.1,22.1c0,0,0,0,0,0h25.9c2.9,18,18.5,31.8,37.3,31.8
		c18.8,0,34.5-13.8,37.3-31.8h105.6h15.8c2.9,18,18.5,31.8,37.3,31.8c18.8,0,34.5-13.8,37.3-31.8h24.2c0,0,0,0,0,0
		c12.2,0,22.1-9.9,22.1-22.1v-30.3C485,268.2,471.7,258.9,470.7,258.3z M205.1,360.5c-14.2,0-25.8-11.6-25.8-25.8c0,0,0,0,0,0
		c0,0,0,0,0,0c0-14.2,11.6-25.8,25.8-25.8c14.2,0,25.8,11.6,25.8,25.8C230.9,348.9,219.3,360.5,205.1,360.5z M401.3,360.5
		c-14.2,0-25.8-11.6-25.8-25.8c0-14.2,11.6-25.8,25.8-25.8c14.2,0,25.8,11.6,25.8,25.8C427.1,348.9,415.5,360.5,401.3,360.5z"/>
	<path class="st0" d="M401.3,221.4c3.3,0,6-2.7,6-6c0-3.3-2.7-6-6-6c-12.2,0-22.1,9.9-22.1,22.1v15.7c0,12.2,9.9,22.1,22.1,22.1
		h28.1c3.3,0,6-2.7,6-6c0-3.3-2.7-6-6-6h-28.1c-5.6,0-10.1-4.6-10.1-10.1v-15.7C391.1,226,395.7,221.4,401.3,221.4z"/>
	<path class="st0" d="M96.4,151.5h13.4c3.3,0,6-2.7,6-6c0-3.3-2.7-6-6-6H96.4c-3.3,0-6,2.7-6,6C90.4,148.8,93.1,151.5,96.4,151.5z"
		/>
	<path class="st0" d="M109.8,231.8c3.3,0,6-2.7,6-6c0-3.3-2.7-6-6-6H62c-3.3,0-6,2.7-6,6c0,3.3,2.7,6,6,6H109.8z"/>
	<path class="st0" d="M155.9,263.4c0-3.3-2.7-6-6-6H89.2c-3.3,0-6,2.7-6,6c0,3.3,2.7,6,6,6h60.6
		C153.2,269.4,155.9,266.7,155.9,263.4z"/>
	<path class="st0" d="M191,257.4h-7.2c-3.3,0-6,2.7-6,6c0,3.3,2.7,6,6,6h7.2c3.3,0,6-2.7,6-6C197,260.1,194.3,257.4,191,257.4z"/>
	<path class="st0" d="M205.1,324.7c-5.5,0-10,4.5-10,10c0,5.5,4.5,10,10,10c5.5,0,10-4.5,10-10C215.1,329.2,210.6,324.7,205.1,324.7
		z"/>
	<path class="st0" d="M401.3,324.7c-5.5,0-10,4.5-10,10c0,5.5,4.5,10,10,10c5.5,0,10-4.5,10-10C411.3,329.2,406.8,324.7,401.3,324.7
		z"/>
	<g>
		<g>
			<path class="st0" d="M199.1,206.9H31.7c-2.6,0-4.7-2.7-4.7-6s2.1-6,4.7-6h167.4c2.6,0,4.7,2.7,4.7,6S201.7,206.9,199.1,206.9z"/>
		</g>
		<g>
			<path class="st0" d="M200.9,226.5l31.6-18.2c5.6-3.3,5.6-11.4,0-14.6l-31.6-18.2c-5.6-3.3-12.7,0.8-12.7,7.3v36.5
				C188.2,225.7,195.3,229.7,200.9,226.5z"/>
		</g>
	</g>
</g>
</svg>
