<?xml version="1.0" encoding="utf-8"?>
<!-- Generator: Adobe Illustrator 22.0.1, SVG Export Plug-In . SVG Version: 6.00 Build 0)  -->
<svg version="1.1" id="Capa_1" xmlns="http://www.w3.org/2000/svg" xmlns:xlink="http://www.w3.org/1999/xlink" x="0px" y="0px"
	 viewBox="0 0 469.3 469.3" style="enable-background:new 0 0 469.3 469.3;" xml:space="preserve">
<style type="text/css">
	.st0{fill:#FFFFFF;}
</style>
<g>
	<g>
		<g>
			<path class="st0" d="M378.9,143.8l-31.1,31.1c9.5,17.8,14.9,38.1,14.9,59.7c0,70.7-57.3,128-128,128v-64L149.3,384l85.3,85.3v-64
				c94.3,0,170.7-76.4,170.7-170.7C405.3,201.2,395.5,170.1,378.9,143.8z"/>
			<path class="st0" d="M234.7,106.7v64L320,85.3L234.7,0v64C140.4,64,64,140.4,64,234.7c0,33.5,9.8,64.5,26.5,90.9l31.1-31.1
				c-9.5-17.8-14.9-38.1-14.9-59.7C106.7,163.9,163.9,106.7,234.7,106.7z"/>
		</g>
	</g>
</g>
</svg>
