<?xml version="1.0" encoding="utf-8"?>
<!-- Generator: Adobe Illustrator 22.0.1, SVG Export Plug-In . SVG Version: 6.00 Build 0)  -->
<svg version="1.1" id="Capa_1" xmlns="http://www.w3.org/2000/svg" xmlns:xlink="http://www.w3.org/1999/xlink" x="0px" y="0px"
	 viewBox="0 0 467.2 291" style="enable-background:new 0 0 467.2 291;" xml:space="preserve">
<style type="text/css">
	.st0{fill:#93BD38;}
</style>
<g>
	<g>
		<path class="st0" d="M93.8,213.6c-6-2.3-12.5-1.9-18.4,1.1c-5.7,2.9-10.1,7.8-12.4,14c-4.9,12.9,1,27.2,13.1,31.7
			c2.6,1,5.2,1.5,7.9,1.5c3.6,0,7.2-0.9,10.6-2.6c5.7-2.9,10.1-7.8,12.4-14C111.8,232.5,105.9,218.2,93.8,213.6z M92.8,240.1
			c-1,2.6-2.8,4.7-5.2,5.9c-2.1,1.1-4.3,1.2-6.3,0.5c-4.4-1.7-6.3-7.2-4.4-12.4c1-2.6,2.8-4.7,5.2-5.9c1.2-0.6,2.5-0.9,3.8-0.9
			c0.9,0,1.7,0.2,2.6,0.5C92.8,229.3,94.8,234.9,92.8,240.1z"/>
	</g>
</g>
<g>
	<g>
		<path class="st0" d="M382.7,213.6c-12.1-4.6-25.9,2.2-30.8,15.1c-4.9,12.9,1,27.2,13.1,31.7c2.6,1,5.2,1.5,7.9,1.5
			c3.6,0,7.2-0.9,10.6-2.6c5.7-2.9,10.1-7.8,12.4-14C400.7,232.5,394.8,218.2,382.7,213.6z M381.8,240.1c-1,2.6-2.8,4.7-5.2,5.9
			c-2.1,1.1-4.3,1.2-6.3,0.5c-4.4-1.7-6.3-7.2-4.4-12.4c1.6-4.2,5.3-6.9,8.9-6.9c0.9,0,1.7,0.1,2.6,0.5
			C381.8,229.3,383.7,234.9,381.8,240.1z"/>
	</g>
</g>
<g>
	<g>
		<path class="st0" d="M460.4,107.7C460.4,107.7,460.4,107.7,460.4,107.7c-11-12.4-22.3-25.4-34.7-39.7c-3.7-4.2-9.2-6.7-15-6.7
			l-63-0.1c1.9-11.9,3.8-23.7,5.5-35.2c0.7-4.8-0.7-9.6-3.7-13.1c-3.1-3.5-7.6-5.6-12.5-5.6c-52.5,0-80.5,0-125-0.1l-163.3,0
			c0,0,0,0,0,0c-4.1,0-7.5,3.4-7.5,7.5c0,4.1,3.4,7.5,7.5,7.5l163.3,0c44.5,0,72.5,0,125,0.1c0.5,0,1,0.1,1.2,0.4
			c0.3,0.3,0.3,0.8,0.2,1.2c-3.6,24.8-8,50.7-12.2,76c-6.2,36.4-12.5,73.8-17.3,110.3c0,0.1,0,0.3-0.1,0.4c-2.3,0-4.6,0-7,0
			c-2.9,0-5.9,0-8.8,0c-3.8,0-7.6,0-11.4,0c-2.3,0-4.7,0-7,0c-4.4,0-8.8,0-13.2,0c-1.7,0-3.5,0-5.2,0c-5.1,0-10.2,0-15.4,0
			c-1,0-2.1,0-3.1,0c-12,0-24.1,0-36-0.1c-0.5,0-1,0-1.5,0c-12.5,0-24.9-0.1-37.2-0.1l-38-0.1c-3.7-6.7-8.9-12.1-15.3-16
			c-0.2-0.1-0.4-0.2-0.6-0.4c-0.3-0.2-0.7-0.4-1-0.6c-0.3-0.2-0.6-0.3-0.9-0.5c-0.3-0.2-0.6-0.3-0.9-0.5c-0.4-0.2-0.8-0.4-1.2-0.5
			c-0.2-0.1-0.5-0.2-0.7-0.3c-0.6-0.3-1.3-0.6-2-0.8c-0.7-0.3-1.4-0.5-2-0.7c-0.4-0.1-0.8-0.2-1.1-0.3c-0.3-0.1-0.6-0.2-0.9-0.3
			c-0.5-0.1-1-0.3-1.6-0.4c-0.1,0-0.3-0.1-0.4-0.1c-0.6-0.1-1.3-0.3-1.9-0.4c0,0,0,0-0.1,0c-6.8-1.2-13.8-0.7-20.5,1.5
			c0,0,0,0-0.1,0c-0.5,0.2-1.1,0.4-1.6,0.6c-0.2,0.1-0.4,0.1-0.6,0.2c-0.4,0.2-0.8,0.3-1.2,0.5c-0.2,0.1-0.4,0.1-0.5,0.2
			c-0.2,0.1-0.3,0.2-0.5,0.2c-0.3,0.1-0.5,0.2-0.8,0.3c-0.5,0.2-1,0.5-1.5,0.7c-0.1,0.1-0.2,0.1-0.4,0.2c0,0-0.1,0-0.1,0
			c-0.6,0.3-1.2,0.6-1.8,1c-0.3,0.1-0.5,0.3-0.7,0.4c-0.3,0.2-0.7,0.4-1,0.6c-0.3,0.2-0.7,0.4-1,0.6c-0.2,0.1-0.4,0.3-0.6,0.4
			c-5.5,3.7-10.2,8.5-13.9,14.1l-7.9,0c-5.9,0-11.8,0-17.7,0c1.4-8.6,30.7-176.8,33.4-193.7c0.7-4.1-2.1-7.9-6.2-8.6
			c-4.1-0.7-7.9,2.1-8.6,6.2C36.1,41.8,5.7,216.4,5.7,216.4c0,0,0,0,0,0.1c0,0,0,0,0,0.1l-1.5,10.2c-0.8,5.6,0.8,11.2,4.5,15.4
			c3.7,4.3,9,6.7,14.6,6.7l16.2,0c0.6,3.1,1.5,6.2,2.6,9.2c4.7,12,13.7,21,25.3,25.4c4.9,1.9,10,2.8,15.1,2.8
			c19.1,0,37.6-12.7,45.3-32.9c0.5-1.4,1-2.9,1.4-4.3c52.9,0.1,111.6,0.1,163.2,0.2l20.3,0c0,0,0,0,0,0c4.8,0,9.7,0,14.5,0l1.3,0
			c0.6,3,1.4,6,2.6,8.8c4.7,12,13.7,21,25.3,25.4c4.9,1.9,10,2.8,15.2,2.8c7,0,14-1.7,20.6-5.1c11.2-5.7,20-15.6,24.6-27.9
			c0.5-1.3,0.9-2.6,1.3-4h0.4c3,0,6,0,8.9,0c10.6,0,20.2-8.1,21.8-18.5c5.5-36,11.3-74,15.9-107.5
			C465.8,117.6,464.1,111.9,460.4,107.7z M40.7,225.3c-0.1,0.3-0.2,0.6-0.2,0.9c-0.1,0.4-0.2,0.9-0.3,1.3c-0.1,0.4-0.2,0.8-0.2,1.1
			c-0.1,0.4-0.2,0.7-0.2,1.1c-0.1,0.5-0.2,0.9-0.3,1.4c0,0.2-0.1,0.5-0.1,0.7c-0.1,0.6-0.2,1.2-0.2,1.7c0,0.1,0,0.1,0,0.2l-15.7,0
			c-1.7,0-2.8-0.9-3.3-1.5c-0.5-0.6-1.3-1.8-1-3.5l0.6-3.8c6.7,0,13.4,0,20.1,0l1,0C40.7,225.2,40.7,225.3,40.7,225.3z M115.7,240.3
			c0,0,0,0.1,0,0.1c-0.4,2.5-1.1,5.1-2,7.6c-6.8,17.8-25.2,27.4-41,21.4c-7.6-2.9-13.5-8.8-16.6-16.8c-1.4-3.6-2.2-7.3-2.4-11.2
			c0-0.1,0-0.2,0-0.3c-0.1-1.9,0-3.8,0.2-5.7c0,0,0,0,0,0c0.1-0.6,0.1-1.1,0.2-1.7c0-0.1,0-0.2,0.1-0.3c0.1-0.5,0.2-0.9,0.3-1.4
			c0-0.2,0.1-0.4,0.1-0.5c0.1-0.4,0.2-0.8,0.3-1.2c0.1-0.2,0.1-0.4,0.2-0.6c0.1-0.4,0.2-0.8,0.4-1.2c0.1-0.2,0.1-0.4,0.2-0.6
			c0.2-0.6,0.4-1.2,0.6-1.7c0,0,0,0,0,0c0.3-0.7,0.6-1.5,0.9-2.2c0.1-0.2,0.1-0.3,0.2-0.5c0.3-0.7,0.7-1.5,1.1-2.2
			c0-0.1,0.1-0.1,0.1-0.2c6.9-12.6,20.2-19.5,32.6-17.9c0.2,0,0.5,0.1,0.7,0.1c0.3,0,0.6,0.1,0.9,0.2c0.6,0.1,1.2,0.3,1.8,0.4
			c0.1,0,0.3,0.1,0.4,0.1c0.7,0.2,1.4,0.4,2.1,0.7c0.5,0.2,0.9,0.4,1.4,0.6c0.3,0.1,0.6,0.3,0.8,0.4c0.2,0.1,0.3,0.1,0.5,0.2
			c0.4,0.2,0.8,0.4,1.1,0.6c0,0,0.1,0,0.1,0.1c5.4,3.1,9.7,8,12.3,14.1C116,226.7,116.8,233.5,115.7,240.3z M305.9,234.2l-13.6,0
			c-50.9-0.1-108.8-0.1-161.1-0.2c0-2.9-0.3-5.8-0.8-8.7l32.5,0.1c22.2,0,44.7,0.1,67.4,0.1c1.8,0,3.6,0,5.4,0c3.5,0,7,0,10.5,0
			c3,0,5.9,0,8.9,0c2.7,0,5.4,0,8.2,0c3.8,0,7.5,0,11.2,0c2.2,0,4.4,0,6.7,0c4.2,0,8.3,0,12.4,0c2,0,4,0,6,0c2.4,0,4.9,0,7.3,0
			C306.6,228.5,306.2,231.3,305.9,234.2z M404.6,240.6C404.6,240.6,404.6,240.6,404.6,240.6c-0.4,2.5-1.1,5-2,7.4
			c-3.3,8.8-9.5,15.8-17.4,19.8c-7.7,3.9-16,4.5-23.6,1.6c-7.6-2.9-13.5-8.8-16.6-16.8c-1.4-3.5-2.2-7.2-2.4-11c0-0.1,0-0.1,0-0.2
			c-0.1-1.9,0-3.8,0.2-5.7c0-0.1,0-0.2,0-0.3c0.1-0.5,0.1-1,0.2-1.5c0-0.2,0.1-0.4,0.1-0.6c0.1-0.4,0.1-0.8,0.2-1.2
			c0-0.2,0.1-0.5,0.1-0.7c0.1-0.4,0.2-0.7,0.3-1.1c0.1-0.2,0.1-0.5,0.2-0.7c0.1-0.4,0.2-0.8,0.3-1.1c0.1-0.2,0.1-0.4,0.2-0.6
			c0.2-0.6,0.4-1.2,0.6-1.8c3.3-8.8,9.5-15.8,17.4-19.8c0.5-0.3,1-0.5,1.6-0.7c0.2-0.1,0.3-0.1,0.5-0.2c0.4-0.2,0.7-0.3,1.1-0.4
			c0.2-0.1,0.4-0.1,0.6-0.2c0.3-0.1,0.7-0.2,1-0.3c0.2-0.1,0.4-0.1,0.6-0.2c0.3-0.1,0.7-0.2,1-0.3c0.2-0.1,0.4-0.1,0.6-0.2
			c0.4-0.1,0.7-0.2,1.1-0.2c0.2,0,0.4-0.1,0.5-0.1c0.5-0.1,1-0.2,1.4-0.2c0.1,0,0.1,0,0.2,0c0.5-0.1,1.1-0.1,1.6-0.2
			c0.1,0,0.3,0,0.4,0c0.4,0,0.8,0,1.2,0c0.1,0,0.3,0,0.4,0c0.7,0,1.5,0,2.2,0.1c0,0,0,0,0.1,0c0.7,0.1,1.5,0.2,2.2,0.3
			c0.1,0,0.3,0,0.4,0.1c0.7,0.1,1.4,0.3,2.1,0.5c0.1,0,0.3,0.1,0.4,0.1c0.7,0.2,1.5,0.4,2.2,0.7c0.4,0.2,0.9,0.3,1.3,0.5
			c0.3,0.1,0.5,0.2,0.8,0.4c0.1,0.1,0.3,0.1,0.4,0.2C400.4,211.7,407.1,225.9,404.6,240.6z M450.2,121.3
			c-4.6,33.3-10.3,71.2-15.9,107.2c-0.5,3-3.8,5.8-7,5.8c-2.4,0-4.8,0-7.2,0c0-6.2-1.2-12.4-3.5-18.2c-4.2-10.7-11.9-19-21.7-23.8
			c-0.3-0.1-0.6-0.3-0.9-0.4c-0.3-0.1-0.5-0.3-0.8-0.4c-0.6-0.3-1.2-0.5-1.9-0.8c-10.1-3.8-21.1-3.7-31.4,0.3
			c-1.5,0.6-2.9,1.2-4.4,2c-11.2,5.7-20,15.6-24.6,27.9c-0.4,1-0.7,1.9-1,2.9c-0.1,0.3-0.2,0.6-0.3,0.9c-0.2,0.8-0.5,1.6-0.7,2.4
			c-0.1,0.2-0.1,0.4-0.2,0.6c-0.2,1-0.4,2-0.6,3c0,0.2-0.1,0.4-0.1,0.6c-0.1,0.9-0.3,1.8-0.4,2.7c0,0.1,0,0.2,0,0.3l-0.7,0
			c-2.1,0-4.1,0-6.2,0c0.6-5.1,1.2-10.2,1.5-13.1c0.1-1,0.2-2,0.4-3c4.6-36.4,11.1-74.7,17.3-111.8c0.2-1.2,0.4-2.5,0.6-3.7
			c0.1-0.4,0.1-0.8,0.2-1.3c1.4-8.4,2.9-16.8,4.2-25.1l65.4,0.1c1.6,0,2.9,0.5,3.7,1.5c12.4,14.3,23.7,27.3,34.8,39.8
			C450,118.6,450.4,119.9,450.2,121.3z"/>
	</g>
</g>
<g>
	<g>
		<path class="st0" d="M436.6,121.5c-9-10.3-18-20.6-26.6-30.5c-2.4-2.7-5.8-4.3-9.6-4.3l-35.7,0c0,0,0,0,0,0
			c-6.8,0-13.1,5.3-14.1,12l-1.1,6.6c-2.4,14.9-4.9,30.4-7.3,45.6c0,0,0,0,0,0c-0.6,3.6,0.4,7.3,2.8,10c2.4,2.8,5.9,4.4,9.7,4.4
			l67.6,0c0,0,0,0,0,0c7,0,13.2-5.3,14.2-12.1c1.3-8.7,1.9-13,3.1-21.6C440,127.9,438.9,124.2,436.6,121.5z M421.6,150.3l-64.2,0
			c2.3-14.2,4.6-28.6,6.9-42.6l1-6l34.1,0c8.1,9.4,16.6,19.1,25.1,28.8C423.4,138.2,422.8,142.5,421.6,150.3z"/>
	</g>
</g>
</svg>
