<?xml version="1.0" encoding="utf-8"?>
<!-- Generator: Adobe Illustrator 22.0.1, SVG Export Plug-In . SVG Version: 6.00 Build 0)  -->
<svg version="1.1" id="Capa_1" xmlns="http://www.w3.org/2000/svg" xmlns:xlink="http://www.w3.org/1999/xlink" x="0px" y="0px"
	 viewBox="0 0 512 512" style="enable-background:new 0 0 512 512;" xml:space="preserve">
<style type="text/css">
	.st0{fill:#93BD38;}
</style>
<g>
	<g>
		<path class="st0" d="M256,0C114.8,0,0,114.8,0,256s114.8,256,256,256s256-114.8,256-256S397.2,0,256,0z M234.7,74.7
			c0-5.9,4.8-10.7,10.7-10.7h21.3c5.9,0,10.7,4.8,10.7,10.7v170.7c0,5.9-4.8,10.7-10.7,10.7h-21.3c-5.9,0-10.7-4.8-10.7-10.7
			L234.7,74.7L234.7,74.7z M225.9,402.4c-58.6-11.5-105.6-59-116.6-117.7c-13.8-73.7,26.9-140.2,88.8-166.3c7.2-3,15.2,1.9,15.2,9.7
			v23.7c0,4-2.3,7.5-5.9,9.4c-34.4,17.7-58.1,53.5-58.1,94.8c0,66.3,60.9,118.7,129.7,104.2c41.7-8.8,74.7-43.4,82-85.3
			c8.5-49-16.8-93.3-56.4-113.7c-3.6-1.8-6-5.4-6-9.4v-23.6c0-7.8,8-12.8,15.1-9.8c53.7,22.6,91.5,75.8,91.5,137.6
			C405.3,348.2,321.4,421.1,225.9,402.4z"/>
	</g>
</g>
</svg>
