<?xml version="1.0" encoding="utf-8"?>
<!-- Generator: Adobe Illustrator 22.0.1, SVG Export Plug-In . SVG Version: 6.00 Build 0)  -->
<svg version="1.1" id="Capa_1" xmlns="http://www.w3.org/2000/svg" xmlns:xlink="http://www.w3.org/1999/xlink" x="0px" y="0px"
	 viewBox="0 0 512 512" style="enable-background:new 0 0 512 512;" xml:space="preserve">
<style type="text/css">
	.st0{fill:#93BD38;}
</style>
<g id="Delivery">
	<path class="st0" d="M352,424c0-4.4-3.6-8-8-8s-8,3.6-8,8v48c0,4.4,3.6,8,8,8s8-3.6,8-8V424z"/>
	<path class="st0" d="M376,400c-4.4,0-8,3.6-8,8v64c0,4.4,3.6,8,8,8s8-3.6,8-8v-64C384,403.6,380.4,400,376,400z"/>
	<path class="st0" d="M104,400c-4.4,0-8,3.6-8,8v64c0,4.4,3.6,8,8,8s8-3.6,8-8v-64c0-2.1-0.8-4.1-2.3-5.6
		C108.2,400.9,106.2,400,104,400z"/>
	<path class="st0" d="M176,424c0-4.4-3.6-8-8-8s-8,3.6-8,8v48c0,4.4,3.6,8,8,8s8-3.6,8-8V424z"/>
	<path class="st0" d="M468,376c-6.6,0-12,5.4-12,12v18.1c5.1,4.5,8,11,8,17.9v23.3c6.2,2.2,13.1-1.1,15.3-7.3c0.5-1.3,0.7-2.6,0.7-4
		v-48c0-3.2-1.3-6.2-3.5-8.5C474.2,377.2,471.2,376,468,376z"/>
	<path class="st0" d="M408,400c-2.1,0-4.1,0.8-5.6,2.3c-1.6,1.5-2.5,3.5-2.4,5.7v64c0,4.4,3.6,8,8,8s8-3.6,8-8v-64
		C416,403.6,412.4,400,408,400z"/>
	<path class="st0" d="M431.1,401.9c2.8-1.1,5.8-1.7,8.9-1.7V388c0-7.3,2.9-14.3,8-19.5V144H304v120c0,4.4-3.6,8-8,8h-80
		c-4.4,0-8-3.6-8-8V144H64v224c0,0.1-0.1,0.2-0.1,0.3c5.2,5.2,8.1,12.3,8.1,19.7v12.2c3,0,6.1,0.6,8.9,1.7
		C83.7,391.4,93.1,384,104,384c5.9,0,11.6,2.2,16,6.3c9.7-8.9,24.7-8.2,33.6,1.4c2.6,2.9,4.5,6.3,5.5,10.1
		c12.2-5,26.2,0.9,31.2,13.2c1.2,2.9,1.8,6,1.8,9.1v24h128v-24c0-13.2,10.6-24,23.8-24c3.1,0,6.2,0.6,9.1,1.8
		c3.3-12.7,16.3-20.3,29-17c3.7,1,7.2,2.9,10,5.5c4.3-4,10.1-6.3,16-6.3C418.9,384,428.3,391.4,431.1,401.9z M264,400h-64
		c-4.4,0-8-3.6-8-8s3.6-8,8-8h64c4.4,0,8,3.6,8,8S268.4,400,264,400z M264,368h-64c-4.4,0-8-3.6-8-8s3.6-8,8-8h64c4.4,0,8,3.6,8,8
		S268.4,368,264,368z M264,336h-64c-4.4,0-8-3.6-8-8s3.6-8,8-8h64c4.4,0,8,3.6,8,8S268.4,336,264,336z M312,400h-16
		c-4.4,0-8-3.6-8-8s3.6-8,8-8h16c4.4,0,8,3.6,8,8S316.4,400,312,400z M312,368h-16c-4.4,0-8-3.6-8-8s3.6-8,8-8h16c4.4,0,8,3.6,8,8
		S316.4,368,312,368z M312,336h-16c-4.4,0-8-3.6-8-8s3.6-8,8-8h16c4.4,0,8,3.6,8,8S316.4,336,312,336z"/>
	<path class="st0" d="M136,400c-4.4,0-8,3.6-8,8v64c0,4.4,3.6,8,8,8s8-3.6,8-8v-64C144,403.6,140.4,400,136,400z"/>
	<path class="st0" d="M80,424c0-2.1-0.8-4.1-2.3-5.6c-1.5-1.6-3.5-2.5-5.7-2.4c-4.4,0-8,3.6-8,8v48c0,4.4,3.6,8,8,8s8-3.6,8-8V424z"
		/>
	<path class="st0" d="M44,448c1.4,0,2.7-0.3,4-0.7V424c0-6.8,2.9-13.2,8-17.7V388c0-6.6-5.4-12-12-12s-12,5.4-12,12v48
		C32,442.6,37.4,448,44,448z"/>
	<rect x="224" y="144" class="st0" width="64" height="112"/>
	<path class="st0" d="M440,480c4.4,0,8-3.6,8-8v-48c0-2.9-1.5-5.5-4-6.9l0,0c-3.1-1.7-7-1.2-9.5,1.2c-1.6,1.5-2.5,3.5-2.5,5.7v48
		C432,476.4,435.6,480,440,480z"/>
	<polygon class="st0" points="222.8,32 116.9,32 68.9,128 209.1,128 	"/>
	<polygon class="st0" points="286.8,128 273.1,32 238.9,32 225.2,128 	"/>
	<polygon class="st0" points="443.1,128 395.1,32 289.2,32 302.9,128 	"/>
</g>
</svg>
